<svg xmlns="http://www.w3.org/2000/svg" viewBox="120 120 784 784">
    <circle fill="white" cx="512" cy="512" r="392"/>
    <path fill="#0369A1" d="M149.856 361.789C130.621 408.06 120 458.8 120 512c0 84.806 26.989 163.359 72.839 227.53l228.012-398.175H248.702q-32.7 0-51.118.375-18.418.376-33.828 7.518-7.625 3.465-13.9 12.541Zm79.737-121.544C300.927 166.137 401.118 120 512 120c110.882 0 211.073 46.137 282.407 120.245H588.114l-36.46 276.641 29.318 9.773q18.794-22.928 42.474-37.023 23.68-14.095 58.636-14.095 45.104 0 73.482 34.016 28.379 34.016 28.379 87.014 0 36.459-8.645 65.214-8.645 28.754-25.56 49.803-14.659 18.417-35.332 28.002-20.672 9.585-42.097 9.585-10.524 0-22.552-1.692-12.028-1.691-21.049-5.074 4.135-11.652 10.524-33.828 6.39-22.177 6.39-40.97 0-26.687-18.981-42.662-18.982-15.974-48.676-15.974-28.566 0-45.668 18.417-17.102 18.418-17.102 45.105 0 45.104 51.494 78.181 51.495 33.077 128.548 33.077 69.496 0 121.701-25.525C745.05 847.121 635.115 904 512 904c-112.791 0-214.519-47.739-286.064-124.097l271.593-494.929v-44.729H229.593Zm636.623 103.741C890.44 394.919 904 451.888 904 512c0 1.883-.013 3.763-.04 5.641l-.115-.191q-19.169-31.761-47.359-50.555-30.822-20.297-63.335-27.626-32.512-7.33-65.965-7.33-43.225 0-75.174 11.652-31.949 11.652-52.246 24.432l15.589-124.037h250.861Z"/>
</svg>